<svg xmlns="http://www.w3.org/2000/svg" viewBox="0 0 500 500"><g id="freepik--background-simple--inject-292"><path d="M459.24,137.52c-2.41-18.76-7.11-36.75-17-53.14C424,53.93,391,35.53,357.63,26.2c-28-7.82-58.16-10.08-86.09-2-30.66,8.87-56.39,29.29-84,45.3a437.69,437.69,0,0,1-63.1,29.66c-17.58,6.73-39.92,10.5-54.37,23.28a144.93,144.93,0,0,0-23.35,26.65C19.74,188.4,11,238.62,15.12,285.5c2.91,32.66,11.89,65.71,32,91.58,28.27,36.31,76.8,54.2,122.59,49.69,52-5.12,101.25-36.19,152.93-28.73,25.73,3.71,50.35,16.93,76.23,14.47,25.51-2.42,47.34-20,62.73-40.45,12.34-16.43,20.55-36.3,21.31-57,.83-22.39-9.31-42.81-14.4-64.19C459.66,213.5,464.09,175.27,459.24,137.52Z" style="fill:#BA8600"></path><path d="M459.24,137.52c-2.41-18.76-7.11-36.75-17-53.14C424,53.93,391,35.53,357.63,26.2c-28-7.82-58.16-10.08-86.09-2-30.66,8.87-56.39,29.29-84,45.3a437.69,437.69,0,0,1-63.1,29.66c-17.58,6.73-39.92,10.5-54.37,23.28a144.93,144.93,0,0,0-23.35,26.65C19.74,188.4,11,238.62,15.12,285.5c2.91,32.66,11.89,65.71,32,91.58,28.27,36.31,76.8,54.2,122.59,49.69,52-5.12,101.25-36.19,152.93-28.73,25.73,3.71,50.35,16.93,76.23,14.47,25.51-2.42,47.34-20,62.73-40.45,12.34-16.43,20.55-36.3,21.31-57,.83-22.39-9.31-42.81-14.4-64.19C459.66,213.5,464.09,175.27,459.24,137.52Z" style="fill:#fff;opacity:0.7000000000000001"></path></g><g id="freepik--Plants--inject-292"><line x1="57" y1="284.7" x2="70.9" y2="417.95" style="fill:none;stroke:#263238;stroke-miterlimit:10;stroke-width:2px"></line><line x1="68.66" y1="392.45" x2="62.36" y2="385.79" style="fill:none;stroke:#263238;stroke-miterlimit:10;stroke-width:2px"></line><path d="M64.28,387.78a7.13,7.13,0,0,0-2.51-5.34c-1.62-1.45-10.14-5-11-2C50,383.67,58.66,390.08,64.28,387.78Z" style="fill:#BA8600;stroke:#263238;stroke-miterlimit:10"></path><line x1="64.28" y1="387.78" x2="56.17" y2="382.73" style="fill:none;stroke:#263238;stroke-miterlimit:10;stroke-width:0.5px"></line><line x1="70.25" y1="407.6" x2="63.94" y2="400.94" style="fill:none;stroke:#263238;stroke-miterlimit:10;stroke-width:2px"></line><path d="M65.86,402.94a7.14,7.14,0,0,0-2.51-5.35c-1.62-1.44-10.14-5-10.94-2C51.53,398.82,60.24,405.23,65.86,402.94Z" style="fill:#BA8600;stroke:#263238;stroke-miterlimit:10"></path><line x1="65.86" y1="402.94" x2="57.75" y2="397.89" style="fill:none;stroke:#263238;stroke-miterlimit:10;stroke-width:0.5px"></line><line x1="64.8" y1="355.47" x2="58.5" y2="348.81" style="fill:none;stroke:#263238;stroke-miterlimit:10;stroke-width:2px"></line><path d="M60.42,350.81a7.14,7.14,0,0,0-2.51-5.35c-1.62-1.45-10.14-5-10.94-2C46.09,346.69,54.8,353.1,60.42,350.81Z" style="fill:#BA8600;stroke:#263238;stroke-miterlimit:10"></path><line x1="60.42" y1="350.81" x2="52.31" y2="345.75" style="fill:none;stroke:#263238;stroke-miterlimit:10;stroke-width:0.5px"></line><line x1="66.39" y1="370.62" x2="60.08" y2="363.97" style="fill:none;stroke:#263238;stroke-miterlimit:10;stroke-width:2px"></line><path d="M62,366a7.15,7.15,0,0,0-2.51-5.35c-1.62-1.44-10.14-5-10.94-2C47.67,361.85,56.38,368.25,62,366Z" style="fill:#BA8600;stroke:#263238;stroke-miterlimit:10"></path><line x1="62" y1="365.96" x2="53.89" y2="360.91" style="fill:none;stroke:#263238;stroke-miterlimit:10;stroke-width:0.5px"></line><line x1="62.24" y1="330.85" x2="55.93" y2="324.2" style="fill:none;stroke:#263238;stroke-miterlimit:10;stroke-width:2px"></line><path d="M57.85,326.19a7.15,7.15,0,0,0-2.51-5.35c-1.62-1.44-10.14-5-10.94-2C43.52,322.08,52.23,328.48,57.85,326.19Z" style="fill:#BA8600;stroke:#263238;stroke-miterlimit:10"></path><line x1="57.85" y1="326.19" x2="49.74" y2="321.14" style="fill:none;stroke:#263238;stroke-miterlimit:10;stroke-width:0.5px"></line><line x1="59.66" y1="306.13" x2="53.35" y2="299.47" style="fill:none;stroke:#263238;stroke-miterlimit:10;stroke-width:2px"></line><path d="M55.27,301.47a7.14,7.14,0,0,0-2.51-5.35c-1.62-1.44-10.14-5-10.94-2C40.94,297.35,49.65,303.76,55.27,301.47Z" style="fill:#BA8600;stroke:#263238;stroke-miterlimit:10"></path><line x1="55.27" y1="301.47" x2="47.16" y2="296.42" style="fill:none;stroke:#263238;stroke-miterlimit:10;stroke-width:0.5px"></line><line x1="67.6" y1="383.48" x2="72.4" y2="375.67" style="fill:none;stroke:#263238;stroke-miterlimit:10;stroke-width:2px"></line><path d="M70.94,378a7.12,7.12,0,0,1,1.35-5.75c1.28-1.75,8.87-7,10.28-4.24C84.11,371,76.9,379.1,70.94,378Z" style="fill:#BA8600;stroke:#263238;stroke-miterlimit:10"></path><line x1="70.94" y1="378.01" x2="78.24" y2="371.04" style="fill:none;stroke:#263238;stroke-miterlimit:10;stroke-width:0.5px"></line><line x1="63.44" y1="343.61" x2="68.24" y2="335.79" style="fill:none;stroke:#263238;stroke-miterlimit:10;stroke-width:2px"></line><path d="M66.77,338.14a7.16,7.16,0,0,1,1.35-5.75c1.29-1.75,8.88-7,10.29-4.25C80,331.15,72.74,339.22,66.77,338.14Z" style="fill:#BA8600;stroke:#263238;stroke-miterlimit:10"></path><line x1="66.77" y1="338.14" x2="74.07" y2="331.16" style="fill:none;stroke:#263238;stroke-miterlimit:10;stroke-width:0.5px"></line><line x1="61.61" y1="326.08" x2="66.41" y2="318.26" style="fill:none;stroke:#263238;stroke-miterlimit:10;stroke-width:2px"></line><path d="M64.94,320.61a7.15,7.15,0,0,1,1.36-5.75c1.28-1.75,8.87-7,10.28-4.24C78.12,313.63,70.91,321.7,64.94,320.61Z" style="fill:#BA8600;stroke:#263238;stroke-miterlimit:10"></path><line x1="64.94" y1="320.61" x2="72.24" y2="313.63" style="fill:none;stroke:#263238;stroke-miterlimit:10;stroke-width:0.5px"></line><line x1="58.93" y1="300.39" x2="63.73" y2="292.57" style="fill:none;stroke:#263238;stroke-miterlimit:10;stroke-width:2px"></line><path d="M62.26,294.92a7.16,7.16,0,0,1,1.35-5.75c1.29-1.75,8.88-7,10.29-4.24C75.44,287.94,68.23,296,62.26,294.92Z" style="fill:#BA8600;stroke:#263238;stroke-miterlimit:10"></path><line x1="62.26" y1="294.92" x2="69.56" y2="287.94" style="fill:none;stroke:#263238;stroke-miterlimit:10;stroke-width:0.5px"></line><path d="M56.88,284a7.16,7.16,0,0,1,1.35-5.75c1.29-1.75,8.88-7,10.29-4.25C70.05,277,62.85,285.05,56.88,284Z" style="fill:#BA8600;stroke:#263238;stroke-miterlimit:10"></path><line x1="56.88" y1="283.97" x2="64.18" y2="276.99" style="fill:none;stroke:#263238;stroke-miterlimit:10;stroke-width:0.5px"></line><path d="M57.31,284.27a7.14,7.14,0,0,1-5.58-1.95c-1.6-1.46-6-9.56-3.14-10.68C51.74,270.43,59,278.45,57.31,284.27Z" style="fill:#BA8600;stroke:#263238;stroke-miterlimit:10"></path><line x1="57.31" y1="284.27" x2="51.13" y2="276.27" style="fill:none;stroke:#263238;stroke-miterlimit:10;stroke-width:0.5px"></line><line x1="93.68" y1="303.05" x2="79.85" y2="436.3" style="fill:none;stroke:#263238;stroke-miterlimit:10;stroke-width:2px"></line><line x1="82.91" y1="410.89" x2="78.11" y2="403.08" style="fill:none;stroke:#263238;stroke-miterlimit:10;stroke-width:2px"></line><path d="M79.57,405.42a7.16,7.16,0,0,0-1.35-5.75c-1.29-1.74-8.88-7-10.29-4.23C66.4,398.45,73.61,406.51,79.57,405.42Z" style="fill:#BA8600;stroke:#263238;stroke-miterlimit:10"></path><line x1="79.57" y1="405.42" x2="72.68" y2="398.81" style="fill:none;stroke:#263238;stroke-miterlimit:10;stroke-width:0.5px"></line><line x1="86.74" y1="373.91" x2="81.94" y2="366.1" style="fill:none;stroke:#263238;stroke-miterlimit:10;stroke-width:2px"></line><path d="M83.41,368.44a7.15,7.15,0,0,0-1.36-5.75c-1.28-1.74-8.88-7-10.29-4.23C70.23,361.47,77.44,369.53,83.41,368.44Z" style="fill:#BA8600;stroke:#263238;stroke-miterlimit:10"></path><line x1="83.41" y1="368.44" x2="76.52" y2="361.83" style="fill:none;stroke:#263238;stroke-miterlimit:10;stroke-width:0.5px"></line><line x1="85.17" y1="389.06" x2="80.37" y2="381.25" style="fill:none;stroke:#263238;stroke-miterlimit:10;stroke-width:2px"></line><path d="M81.84,383.6a7.14,7.14,0,0,0-1.36-5.75c-1.28-1.75-8.88-7-10.29-4.24C68.66,376.62,75.87,384.69,81.84,383.6Z" style="fill:#BA8600;stroke:#263238;stroke-miterlimit:10"></path><line x1="81.84" y1="383.6" x2="74.94" y2="376.99" style="fill:none;stroke:#263238;stroke-miterlimit:10;stroke-width:0.5px"></line><line x1="89.3" y1="349.29" x2="84.5" y2="341.48" style="fill:none;stroke:#263238;stroke-miterlimit:10;stroke-width:2px"></line><path d="M86,343.83a7.11,7.11,0,0,0-1.35-5.75c-1.29-1.75-8.88-7-10.29-4.24C72.79,336.85,80,344.91,86,343.83Z" style="fill:#BA8600;stroke:#263238;stroke-miterlimit:10"></path><line x1="85.96" y1="343.83" x2="79.07" y2="337.21" style="fill:none;stroke:#263238;stroke-miterlimit:10;stroke-width:0.5px"></line><line x1="91.86" y1="324.57" x2="87.06" y2="316.76" style="fill:none;stroke:#263238;stroke-miterlimit:10;stroke-width:2px"></line><path d="M88.53,319.1a7.15,7.15,0,0,0-1.36-5.75c-1.28-1.74-8.88-7-10.29-4.23C75.35,312.13,82.56,320.19,88.53,319.1Z" style="fill:#BA8600;stroke:#263238;stroke-miterlimit:10"></path><line x1="88.53" y1="319.1" x2="81.64" y2="312.49" style="fill:none;stroke:#263238;stroke-miterlimit:10;stroke-width:0.5px"></line><line x1="83.71" y1="401.9" x2="90.01" y2="395.24" style="fill:none;stroke:#263238;stroke-miterlimit:10;stroke-width:2px"></line><path d="M88.1,397.23a7.15,7.15,0,0,1,2.51-5.35c1.61-1.44,10.13-5,10.94-2C102.43,393.11,93.72,399.52,88.1,397.23Z" style="fill:#BA8600;stroke:#263238;stroke-miterlimit:10"></path><line x1="88.1" y1="397.23" x2="96.68" y2="391.91" style="fill:none;stroke:#263238;stroke-miterlimit:10;stroke-width:0.5px"></line><line x1="87.85" y1="362.02" x2="94.15" y2="355.36" style="fill:none;stroke:#263238;stroke-miterlimit:10;stroke-width:2px"></line><path d="M92.24,357.35a7.16,7.16,0,0,1,2.5-5.35c1.62-1.44,10.14-5,11-2C106.57,353.23,97.85,359.64,92.24,357.35Z" style="fill:#BA8600;stroke:#263238;stroke-miterlimit:10"></path><line x1="92.24" y1="357.35" x2="100.82" y2="352.03" style="fill:none;stroke:#263238;stroke-miterlimit:10;stroke-width:0.5px"></line><line x1="89.67" y1="344.49" x2="95.97" y2="337.83" style="fill:none;stroke:#263238;stroke-miterlimit:10;stroke-width:2px"></line><path d="M94.06,339.83a7.15,7.15,0,0,1,2.5-5.35c1.62-1.45,10.13-5,10.94-2C108.38,335.71,99.67,342.12,94.06,339.83Z" style="fill:#BA8600;stroke:#263238;stroke-miterlimit:10"></path><line x1="94.06" y1="339.83" x2="102.64" y2="334.5" style="fill:none;stroke:#263238;stroke-miterlimit:10;stroke-width:0.5px"></line><line x1="92.34" y1="318.8" x2="98.64" y2="312.14" style="fill:none;stroke:#263238;stroke-miterlimit:10;stroke-width:2px"></line><path d="M96.72,314.14a7.14,7.14,0,0,1,2.51-5.35c1.62-1.45,10.13-5,10.94-2C111.05,310,102.34,316.43,96.72,314.14Z" style="fill:#BA8600;stroke:#263238;stroke-miterlimit:10"></path><line x1="96.72" y1="314.14" x2="105.3" y2="308.81" style="fill:none;stroke:#263238;stroke-miterlimit:10;stroke-width:0.5px"></line><path d="M93.71,302.31A7.14,7.14,0,0,1,96.22,297c1.62-1.45,10.13-5,10.94-2C108,298.18,99.33,304.6,93.71,302.31Z" style="fill:#BA8600;stroke:#263238;stroke-miterlimit:10"></path><line x1="93.71" y1="302.31" x2="102.29" y2="296.98" style="fill:none;stroke:#263238;stroke-miterlimit:10;stroke-width:0.5px"></line><path d="M94.07,302.69A7.16,7.16,0,0,1,89,299.64c-1.27-1.76-3.94-10.61-.88-11.1C91.47,288,96.93,297.34,94.07,302.69Z" style="fill:#BA8600;stroke:#263238;stroke-miterlimit:10"></path><line x1="94.07" y1="302.69" x2="89.67" y2="293.6" style="fill:none;stroke:#263238;stroke-miterlimit:10;stroke-width:0.5px"></line><line x1="77.83" y1="248.8" x2="77.83" y2="417.3" style="fill:none;stroke:#263238;stroke-miterlimit:10;stroke-width:2px"></line><line x1="77.96" y1="391.96" x2="72.39" y2="384.69" style="fill:none;stroke:#263238;stroke-miterlimit:10;stroke-width:2px"></line><path d="M74.08,386.87a7.12,7.12,0,0,0-1.94-5.58c-1.46-1.61-9.55-6.05-10.67-3.15C60.26,381.29,68.26,388.57,74.08,386.87Z" style="fill:#BA8600;stroke:#263238;stroke-miterlimit:10"></path><line x1="74.08" y1="386.87" x2="66.54" y2="381" style="fill:none;stroke:#263238;stroke-miterlimit:10;stroke-width:0.5px"></line><line x1="77.96" y1="360.3" x2="72.39" y2="353.02" style="fill:none;stroke:#263238;stroke-miterlimit:10;stroke-width:2px"></line><path d="M74.08,355.2a7.12,7.12,0,0,0-1.94-5.58c-1.46-1.6-9.55-6.05-10.67-3.15C60.26,349.62,68.26,356.9,74.08,355.2Z" style="fill:#BA8600;stroke:#263238;stroke-miterlimit:10"></path><line x1="74.08" y1="355.2" x2="66.54" y2="349.34" style="fill:none;stroke:#263238;stroke-miterlimit:10;stroke-width:0.5px"></line><line x1="77.96" y1="323.12" x2="72.39" y2="315.84" style="fill:none;stroke:#263238;stroke-miterlimit:10;stroke-width:2px"></line><path d="M74.08,318a7.09,7.09,0,0,0-1.94-5.57c-1.46-1.61-9.55-6.06-10.67-3.16C60.26,312.45,68.26,319.72,74.08,318Z" style="fill:#BA8600;stroke:#263238;stroke-miterlimit:10"></path><line x1="74.08" y1="318.02" x2="66.54" y2="312.16" style="fill:none;stroke:#263238;stroke-miterlimit:10;stroke-width:0.5px"></line><line x1="77.96" y1="298.37" x2="72.39" y2="291.09" style="fill:none;stroke:#263238;stroke-miterlimit:10;stroke-width:2px"></line><path d="M74.08,293.27a7.09,7.09,0,0,0-1.94-5.57c-1.46-1.61-9.55-6.06-10.67-3.16C60.26,287.7,68.26,295,74.08,293.27Z" style="fill:#BA8600;stroke:#263238;stroke-miterlimit:10"></path><line x1="74.08" y1="293.27" x2="66.54" y2="287.41" style="fill:none;stroke:#263238;stroke-miterlimit:10;stroke-width:0.5px"></line><line x1="77.96" y1="273.51" x2="72.39" y2="266.23" style="fill:none;stroke:#263238;stroke-miterlimit:10;stroke-width:2px"></line><path d="M74.08,268.42a7.12,7.12,0,0,0-1.94-5.58c-1.46-1.61-9.55-6-10.67-3.15C60.26,262.84,68.26,270.12,74.08,268.42Z" style="fill:#BA8600;stroke:#263238;stroke-miterlimit:10"></path><line x1="74.08" y1="268.42" x2="66.54" y2="262.55" style="fill:none;stroke:#263238;stroke-miterlimit:10;stroke-width:0.5px"></line><line x1="77.84" y1="401.63" x2="83.42" y2="394.35" style="fill:none;stroke:#263238;stroke-miterlimit:10;stroke-width:2px"></line><path d="M81.72,396.54A7.17,7.17,0,0,1,83.66,391c1.46-1.61,9.56-6,10.67-3.15C95.55,391,87.54,398.24,81.72,396.54Z" style="fill:#BA8600;stroke:#263238;stroke-miterlimit:10"></path><line x1="81.72" y1="396.54" x2="89.71" y2="390.36" style="fill:none;stroke:#263238;stroke-miterlimit:10;stroke-width:0.5px"></line><line x1="77.84" y1="351.27" x2="83.42" y2="343.99" style="fill:none;stroke:#263238;stroke-miterlimit:10;stroke-width:2px"></line><path d="M81.72,346.17a7.14,7.14,0,0,1,1.94-5.57c1.46-1.61,9.56-6.06,10.67-3.16C95.55,340.6,87.54,347.87,81.72,346.17Z" style="fill:#BA8600;stroke:#263238;stroke-miterlimit:10"></path><line x1="81.72" y1="346.17" x2="89.71" y2="339.99" style="fill:none;stroke:#263238;stroke-miterlimit:10;stroke-width:0.5px"></line><line x1="77.84" y1="326.41" x2="83.42" y2="319.13" style="fill:none;stroke:#263238;stroke-miterlimit:10;stroke-width:2px"></line><path d="M81.72,321.32a7.17,7.17,0,0,1,1.94-5.58c1.46-1.61,9.56-6.05,10.67-3.15C95.55,315.74,87.54,323,81.72,321.32Z" style="fill:#BA8600;stroke:#263238;stroke-miterlimit:10"></path><line x1="81.72" y1="321.32" x2="89.71" y2="315.14" style="fill:none;stroke:#263238;stroke-miterlimit:10;stroke-width:0.5px"></line><line x1="77.84" y1="293.56" x2="83.42" y2="286.28" style="fill:none;stroke:#263238;stroke-miterlimit:10;stroke-width:2px"></line><path d="M81.72,288.46a7.17,7.17,0,0,1,1.94-5.58c1.46-1.6,9.56-6.05,10.67-3.15C95.55,282.88,87.54,290.16,81.72,288.46Z" style="fill:#BA8600;stroke:#263238;stroke-miterlimit:10"></path><line x1="81.72" y1="288.46" x2="89.71" y2="282.28" style="fill:none;stroke:#263238;stroke-miterlimit:10;stroke-width:0.5px"></line><line x1="77.84" y1="267.73" x2="83.42" y2="260.45" style="fill:none;stroke:#263238;stroke-miterlimit:10;stroke-width:2px"></line><path d="M81.72,262.63a7.17,7.17,0,0,1,1.94-5.58c1.46-1.6,9.56-6.05,10.67-3.15C95.55,257.05,87.54,264.33,81.72,262.63Z" style="fill:#BA8600;stroke:#263238;stroke-miterlimit:10"></path><line x1="81.72" y1="262.63" x2="89.71" y2="256.45" style="fill:none;stroke:#263238;stroke-miterlimit:10;stroke-width:0.5px"></line><path d="M77.51,251.18a7.12,7.12,0,0,1,1.94-5.58c1.46-1.61,9.55-6,10.67-3.16C91.33,245.6,83.33,252.87,77.51,251.18Z" style="fill:#BA8600;stroke:#263238;stroke-miterlimit:10"></path><line x1="77.51" y1="251.18" x2="85.49" y2="244.99" style="fill:none;stroke:#263238;stroke-miterlimit:10;stroke-width:0.5px"></line><path d="M77.9,251.52A7.14,7.14,0,0,1,72.55,249c-1.44-1.62-5-10.14-2-10.95C73.8,237.19,80.2,245.91,77.9,251.52Z" style="fill:#BA8600;stroke:#263238;stroke-miterlimit:10"></path><line x1="77.9" y1="251.52" x2="72.59" y2="242.93" style="fill:none;stroke:#263238;stroke-miterlimit:10;stroke-width:0.5px"></line><polygon points="84.76 461 66.92 461 64.69 415.93 86.99 415.93 84.76 461" style="fill:#263238;stroke:#263238;stroke-miterlimit:10"></polygon></g><g id="freepik--Picture--inject-292"><polyline points="115.71 218.35 26.29 218.35 26.29 76 137 76 137 218.35 121.52 218.35" style="fill:none;stroke:#263238;stroke-miterlimit:10"></polyline><rect x="30.3" y="81.16" width="102.68" height="132.03" style="fill:none;stroke:#263238;stroke-miterlimit:10"></rect><path d="M50.88,117.33a49.93,49.93,0,0,0,5.81,4.61c23.23,15.76,62.63,8.29,75.9,30.69" style="fill:none;stroke:#263238;stroke-miterlimit:10"></path><path d="M37.2,81.71A42.9,42.9,0,0,0,48,114.39" style="fill:none;stroke:#263238;stroke-miterlimit:10"></path><path d="M46,154.44c11.33-6,26-10.23,33.5,1.92,8.71,14.1-31.52,39-31.52,56.82" style="fill:none;stroke:#263238;stroke-miterlimit:10"></path><path d="M30.56,164.65a99.65,99.65,0,0,1,12.31-8.47" style="fill:none;stroke:#263238;stroke-miterlimit:10"></path><path d="M84.07,81.71S99,104.93,133,98.71" style="fill:none;stroke:#263238;stroke-miterlimit:10"></path><path d="M88.53,104.52a15,15,0,0,1,.1,1.66A13.69,13.69,0,1,1,87,99.78" style="fill:none;stroke:#263238;stroke-miterlimit:10"></path><path d="M122.64,124.63a6.43,6.43,0,1,1-6.43-6.43A6.43,6.43,0,0,1,122.64,124.63Z" style="fill:none;stroke:#263238;stroke-miterlimit:10"></path><path d="M122.72,168a26.45,26.45,0,0,1,9.91,5" style="fill:none;stroke:#263238;stroke-miterlimit:10"></path><path d="M98.08,213.27A26.55,26.55,0,0,1,116,167.14c.52,0,1,0,1.53.05" style="fill:none;stroke:#263238;stroke-miterlimit:10"></path></g><g id="freepik--Furniture--inject-292"><rect x="337.09" y="324.73" width="128.92" height="4.86" transform="translate(803.1 654.32) rotate(180)" style="fill:none;stroke:#263238;stroke-linecap:round;stroke-linejoin:round"></rect><rect x="343.07" y="329.73" width="116.96" height="131.27" transform="translate(803.1 790.73) rotate(180)" style="fill:none;stroke:#263238;stroke-linecap:round;stroke-linejoin:round"></rect><rect x="347.28" y="335.84" width="108.69" height="28.48" transform="translate(803.24 700.15) rotate(180)" style="fill:none;stroke:#263238;stroke-linecap:round;stroke-linejoin:round"></rect><rect x="396.37" y="347.45" width="10.87" height="5.25" transform="translate(803.61 700.15) rotate(180)" style="fill:#263238;stroke:#263238;stroke-linecap:round;stroke-linejoin:round"></rect><rect x="347.28" y="371.81" width="108.69" height="28.48" transform="translate(803.24 772.11) rotate(180)" style="fill:none;stroke:#263238;stroke-linecap:round;stroke-linejoin:round"></rect><rect x="396.37" y="383.43" width="10.87" height="5.25" transform="translate(803.61 772.11) rotate(180)" style="fill:#263238;stroke:#263238;stroke-linecap:round;stroke-linejoin:round"></rect><rect x="347.28" y="407.96" width="108.69" height="28.48" transform="translate(803.24 844.4) rotate(180)" style="fill:none;stroke:#263238;stroke-linecap:round;stroke-linejoin:round"></rect><rect x="396.37" y="419.58" width="10.87" height="5.25" transform="translate(803.61 844.4) rotate(180)" style="fill:#263238;stroke:#263238;stroke-linecap:round;stroke-linejoin:round"></rect><path d="M406.91,267.3a15.7,15.7,0,0,0,4.54.5s-.69-2.11-.75-2.24c-.71-1.48-2.95-3.92-4.77-3.67a2.16,2.16,0,0,0-1.74,2.72A4.52,4.52,0,0,0,406.91,267.3Z" style="fill:#263238"></path><path d="M439.51,268s.58-2.15.6-2.29c.23-1.62-.29-4.89-1.94-5.69a2.18,2.18,0,0,0-3,1.31,4.54,4.54,0,0,0,.79,3.74A15.79,15.79,0,0,0,439.51,268Z" style="fill:#263238"></path><path d="M449.13,256.33c-1.83-.2-4,2.3-4.66,3.8-.06.13-.73,2.26-.7,2.26h0c-.34.39-.71.81-1.1,1.29-.71.87-1.51,1.87-2.31,3a38,38,0,0,0-2.39,3.81,28,28,0,0,0-2.05,4.6l0,.06c0-.54,0-2,0-2.16-.21-1.62-1.57-4.64-3.38-5a2.16,2.16,0,0,0-2.5,2,4.53,4.53,0,0,0,1.74,3.4,15.09,15.09,0,0,0,4.12,1.88,39.51,39.51,0,0,0-1.21,5c-.17,1-.32,2-.45,3,0-.47,0-.88,0-.94-.21-1.63-1.57-4.65-3.38-5a2.17,2.17,0,0,0-2.5,2,4.51,4.51,0,0,0,1.74,3.4,14.6,14.6,0,0,0,4,1.85c0,.38-.09.76-.14,1.15-.22,1.84-.43,3.68-.69,5.48-.1.63-.21,1.25-.32,1.88,0-.42,0-.77,0-.82-.21-1.63-1.57-4.64-3.38-5a2.17,2.17,0,0,0-2.5,2,4.54,4.54,0,0,0,1.74,3.4,14,14,0,0,0,3.88,1.8c-.13.63-.27,1.27-.42,1.88-.12.41-.21.81-.35,1.22l-.39,1.21c-.27.76-.55,1.54-.84,2.27-.2.52-.39,1-.59,1.49.1-.63.27-1.87.27-2a8.38,8.38,0,0,0-1.13-4.1,3.87,3.87,0,0,0,0-.48,2.17,2.17,0,0,0-2.66-1.84c-1.77.47-2.9,3.58-3,5.22,0,.1.06,1.15.11,1.82l-.27-1.16c-.19-.79-.4-1.56-.62-2.4-.12-.4-.24-.81-.37-1.22s-.28-.82-.42-1.24c-.36-1-.76-1.91-1.18-2.87a14.19,14.19,0,0,0,4.09-1.53,4.56,4.56,0,0,0,2-3.26,2.18,2.18,0,0,0-2.34-2.23c-1.83.2-3.41,3.11-3.75,4.72,0,.1-.13,1.28-.17,1.92-.26-.57-.52-1.14-.8-1.71-.82-1.64-1.7-3.28-2.56-4.92-.27-.5-.53-1-.79-1.5a15.21,15.21,0,0,0,4.24-1.57,4.57,4.57,0,0,0,2-3.26,2.18,2.18,0,0,0-2.35-2.23c-1.83.2-3.41,3.11-3.74,4.71,0,.12-.18,1.82-.2,2.25-.57-1.1-1.14-2.21-1.65-3.33a39.23,39.23,0,0,1-1.79-4.62,15.45,15.45,0,0,0,4.27-1.58,4.52,4.52,0,0,0,2-3.26,2.18,2.18,0,0,0-2.34-2.23c-1.83.2-3.41,3.11-3.74,4.72,0,.1-.14,1.4-.19,2h-.1a27.9,27.9,0,0,1-.93-4.9c-.11-.91-.15-1.79-.18-2.65A14.59,14.59,0,0,0,416,267a4.51,4.51,0,0,0,2.34-3,2.17,2.17,0,0,0-2.09-2.47c-1.83,0-3.73,2.71-4.23,4.27,0,.09-.22,1-.34,1.63,0-.38,0-.78,0-1.15,0-1.39.09-2.66.18-3.79,0-.64.12-1.21.18-1.75a14.9,14.9,0,0,0,3.31-2.94A4.52,4.52,0,0,0,416,254a2.17,2.17,0,0,0-3-1.23c-1.63.84-2.06,4.13-1.79,5.75,0,.13.64,2.28.67,2.26l0,0c-.07.52-.14,1.07-.21,1.68-.11,1.13-.23,2.4-.26,3.79a36.65,36.65,0,0,0,.11,4.51,28.33,28.33,0,0,0,.83,5s0,0,0,.05c-.29-.45-1.14-1.69-1.21-1.78-1.08-1.24-3.88-3-5.57-2.29a2.18,2.18,0,0,0-1,3.09,4.5,4.5,0,0,0,3.33,1.87,15,15,0,0,0,4.47-.7,38.37,38.37,0,0,0,1.74,4.83c.4.91.83,1.82,1.27,2.73l-.54-.77c-1.07-1.24-3.88-3-5.57-2.29a2.18,2.18,0,0,0-1,3.09,4.56,4.56,0,0,0,3.33,1.88,14.51,14.51,0,0,0,4.35-.67l.51,1c.84,1.66,1.67,3.31,2.45,5,.27.58.52,1.16.77,1.74l-.47-.66c-1.07-1.24-3.88-3-5.57-2.29a2.18,2.18,0,0,0-1,3.09,4.55,4.55,0,0,0,3.33,1.87,14,14,0,0,0,4.23-.63c.24.6.48,1.2.68,1.8.13.4.28.79.39,1.21s.23.82.34,1.22c.19.78.39,1.59.55,2.36.12.54.22,1.05.33,1.56-.26-.58-.81-1.7-.86-1.79-.88-1.39-3.38-3.56-5.16-3.11a2.18,2.18,0,0,0-1.42,2.91,4.56,4.56,0,0,0,3,2.36,14.91,14.91,0,0,0,4.5,0c.17.86.33,1.69.47,2.48.3,1.72.53,3.27.71,4.58H416.7v15.22h19V309.4h-7.35c.48-1.06,1-2.26,1.54-3.6.34-.81.68-1.69,1-2.6a15.24,15.24,0,0,0,4.49.35,4.54,4.54,0,0,0,3.17-2.13,2.16,2.16,0,0,0-1.2-3c-1.74-.59-4.39,1.39-5.37,2.71,0,.08-.58,1-.91,1.57l.42-1.11c.28-.76.53-1.52.81-2.34l.36-1.22c.13-.4.22-.84.33-1.27.23-1,.43-2,.6-3a14.47,14.47,0,0,0,4.26,1,4.58,4.58,0,0,0,3.46-1.62,2.19,2.19,0,0,0-.73-3.16c-1.63-.84-4.56.71-5.72,1.87-.08.07-.82,1-1.21,1.51.09-.62.2-1.24.27-1.87.23-1.82.4-3.67.58-5.51l.18-1.69a14.91,14.91,0,0,0,4.4,1,4.56,4.56,0,0,0,3.46-1.62,2.16,2.16,0,0,0-.73-3.15c-1.63-.84-4.56.71-5.72,1.86-.08.09-1.15,1.42-1.4,1.77.13-1.24.27-2.47.46-3.68a38.54,38.54,0,0,1,1.06-4.85,15.36,15.36,0,0,0,4.43,1,4.58,4.58,0,0,0,3.46-1.62,2.17,2.17,0,0,0-.73-3.15c-1.63-.84-4.56.71-5.72,1.86-.08.08-.89,1.09-1.26,1.58l-.1,0a28.72,28.72,0,0,1,1.93-4.61c.42-.82.86-1.57,1.31-2.3a14.6,14.6,0,0,0,4.2,1.47,4.53,4.53,0,0,0,3.61-1.23,2.16,2.16,0,0,0-.38-3.21c-1.52-1-4.6.21-5.89,1.23-.07.05-.71.7-1.18,1.17.21-.32.42-.66.63-1,.76-1.16,1.54-2.17,2.23-3.06.4-.5.77-.95,1.12-1.37a14.57,14.57,0,0,0,4.38-.62,4.5,4.5,0,0,0,2.64-2.76A2.16,2.16,0,0,0,449.13,256.33Zm-20.22,49.05c-.66,1.52-1.29,2.87-1.84,4h-1.93c-.21-1.36-.48-3-.84-4.78-.17-.87-.37-1.79-.58-2.74a23.65,23.65,0,0,0,2.51-1.18,15.81,15.81,0,0,0,3.66,2.36C429.56,303.87,429.23,304.65,428.91,305.38Z" style="fill:#263238"></path></g><g id="freepik--Device--inject-292"><rect x="150.09" y="53" width="181.19" height="353.6" rx="14.52" style="fill:#263238"></rect><rect x="158.14" y="77.01" width="165.08" height="308.6" style="fill:#fff;stroke:#fff;stroke-linecap:round;stroke-linejoin:round"></rect><rect x="163.64" y="282.46" width="154.07" height="98.81" rx="5.04" style="fill:#BA8600"></rect><rect x="163.64" y="116.29" width="154.07" height="30.49" style="fill:#BA8600"></rect><polygon points="241.47 91.89 160.81 91.89 160.81 103.81 241.47 103.81 319.32 103.81 319.32 91.89 241.47 91.89" style="fill:#BA8600"></polygon><rect x="163.64" y="154.29" width="154.07" height="120.71" rx="5.04" style="fill:#BA8600"></rect><circle cx="178.69" cy="130.74" r="10.43" style="fill:#fff;stroke:#263238;stroke-miterlimit:10"></circle><rect x="169.67" y="159" width="15.33" height="15.33" rx="1.67" style="fill:#fff;stroke:#263238;stroke-miterlimit:10"></rect><rect x="169.67" y="182.75" width="15.33" height="15.33" rx="1.67" style="fill:#fff;stroke:#263238;stroke-miterlimit:10"></rect><rect x="169.67" y="206.5" width="15.33" height="15.33" rx="1.67" style="fill:#fff;stroke:#263238;stroke-miterlimit:10"></rect><rect x="169.67" y="230.25" width="15.33" height="15.33" rx="1.67" style="fill:#fff;stroke:#263238;stroke-miterlimit:10"></rect><rect x="169.67" y="254" width="15.33" height="15.33" rx="1.67" style="fill:#fff;stroke:#263238;stroke-miterlimit:10"></rect><rect x="169.67" y="288.38" width="15.33" height="15.33" rx="1.67" style="fill:#fff;stroke:#263238;stroke-miterlimit:10"></rect><rect x="169.67" y="312.13" width="15.33" height="15.33" rx="1.67" style="fill:#fff;stroke:#263238;stroke-miterlimit:10"></rect><rect x="169.67" y="335.88" width="15.33" height="15.33" rx="1.67" style="fill:#fff;stroke:#263238;stroke-miterlimit:10"></rect><rect x="169.67" y="359.63" width="15.33" height="15.33" rx="1.67" style="fill:#fff;stroke:#263238;stroke-miterlimit:10"></rect><line x1="199.75" y1="126.73" x2="241.46" y2="126.73" style="fill:none;stroke:#263238;stroke-miterlimit:10"></line><line x1="199.75" y1="133.59" x2="241.46" y2="133.59" style="fill:none;stroke:#263238;stroke-miterlimit:10"></line><line x1="199.75" y1="166.26" x2="241.46" y2="166.26" style="fill:none;stroke:#263238;stroke-miterlimit:10"></line><line x1="199.75" y1="190.33" x2="241.46" y2="190.33" style="fill:none;stroke:#263238;stroke-miterlimit:10"></line><line x1="199.75" y1="214.41" x2="241.46" y2="214.41" style="fill:none;stroke:#263238;stroke-miterlimit:10"></line><line x1="199.75" y1="238.49" x2="241.46" y2="238.49" style="fill:none;stroke:#263238;stroke-miterlimit:10"></line><line x1="199.75" y1="262.57" x2="241.46" y2="262.57" style="fill:none;stroke:#263238;stroke-miterlimit:10"></line><line x1="199.75" y1="295.64" x2="241.46" y2="295.64" style="fill:none;stroke:#263238;stroke-miterlimit:10"></line><line x1="199.75" y1="319.71" x2="241.4" y2="319.71" style="fill:none;stroke:#263238;stroke-miterlimit:10"></line><line x1="199.75" y1="343.79" x2="241.4" y2="343.79" style="fill:none;stroke:#263238;stroke-miterlimit:10"></line><line x1="199.75" y1="367.87" x2="241.4" y2="367.87" style="fill:none;stroke:#263238;stroke-miterlimit:10"></line><line x1="241.46" y1="126.73" x2="256.72" y2="126.73" style="fill:none;stroke:#263238;stroke-miterlimit:10"></line><line x1="241.46" y1="133.59" x2="293.65" y2="133.59" style="fill:none;stroke:#263238;stroke-miterlimit:10"></line><line x1="241.46" y1="166.26" x2="273.73" y2="166.26" style="fill:none;stroke:#263238;stroke-miterlimit:10"></line><line x1="241.46" y1="190.33" x2="273.73" y2="190.33" style="fill:none;stroke:#263238;stroke-miterlimit:10"></line><line x1="241.46" y1="214.41" x2="273.73" y2="214.41" style="fill:none;stroke:#263238;stroke-miterlimit:10"></line><line x1="241.46" y1="238.49" x2="273.73" y2="238.49" style="fill:none;stroke:#263238;stroke-miterlimit:10"></line><line x1="241.46" y1="262.57" x2="273.19" y2="262.57" style="fill:none;stroke:#263238;stroke-miterlimit:10"></line><line x1="241.46" y1="295.64" x2="273.73" y2="295.64" style="fill:none;stroke:#263238;stroke-miterlimit:10"></line><line x1="241.4" y1="319.71" x2="273.73" y2="319.71" style="fill:none;stroke:#263238;stroke-miterlimit:10"></line><line x1="241.4" y1="343.79" x2="273.73" y2="343.79" style="fill:none;stroke:#263238;stroke-miterlimit:10"></line><line x1="241.4" y1="367.87" x2="273.73" y2="367.87" style="fill:none;stroke:#263238;stroke-miterlimit:10"></line><rect x="303.92" y="80.21" width="13.69" height="7.51" style="fill:none;stroke:#263238;stroke-linecap:round;stroke-linejoin:round;stroke-width:0.821067px"></rect><rect x="303.92" y="80.21" width="10.67" height="7.51" style="fill:#263238;stroke:#263238;stroke-linecap:round;stroke-linejoin:round;stroke-width:0.725073px"></rect><rect x="317.58" y="82.31" width="1.93" height="3.31" style="fill:#263238;stroke:#263238;stroke-linecap:round;stroke-linejoin:round;stroke-width:0.725073px"></rect><rect x="161.86" y="82.54" width="2.51" height="4.3" style="fill:#263238;stroke:#263238;stroke-linecap:round;stroke-linejoin:round;stroke-width:0.8830859999999999px"></rect><rect x="165.8" y="81.03" width="2.51" height="5.81" style="fill:#263238;stroke:#263238;stroke-linecap:round;stroke-linejoin:round;stroke-width:0.8830859999999999px"></rect><rect x="169.75" y="79.25" width="2.51" height="7.6" style="fill:#263238;stroke:#263238;stroke-linecap:round;stroke-linejoin:round;stroke-width:0.8830859999999999px"></rect><line x1="166.04" y1="178.44" x2="314.18" y2="178.44" style="fill:none;stroke:#263238;stroke-miterlimit:10"></line><line x1="166.04" y1="202.19" x2="314.18" y2="202.19" style="fill:none;stroke:#263238;stroke-miterlimit:10"></line><line x1="166.04" y1="225.93" x2="314.18" y2="225.93" style="fill:none;stroke:#263238;stroke-miterlimit:10"></line><line x1="166.04" y1="249.68" x2="314.18" y2="249.68" style="fill:none;stroke:#263238;stroke-miterlimit:10"></line><line x1="166.04" y1="307.82" x2="314.18" y2="307.82" style="fill:none;stroke:#263238;stroke-miterlimit:10"></line><line x1="166.04" y1="331.57" x2="314.18" y2="331.57" style="fill:none;stroke:#263238;stroke-miterlimit:10"></line><line x1="166.04" y1="355.31" x2="314.18" y2="355.31" style="fill:none;stroke:#263238;stroke-miterlimit:10"></line><rect x="150.09" y="53" width="181.19" height="353.6" rx="14.52" style="fill:none;stroke:#fff;stroke-miterlimit:10"></rect><polygon points="309.97 165.86 305.77 169.26 305.77 170.62 311.64 165.86 305.77 161.1 305.77 162.46 309.97 165.86" style="fill:#263238"></polygon><polygon points="309.97 189.65 305.77 193.05 305.77 194.41 311.64 189.65 305.77 184.89 305.77 186.25 309.97 189.65" style="fill:#263238"></polygon><polygon points="309.97 213.44 305.77 216.84 305.77 218.2 311.64 213.44 305.77 208.68 305.77 210.04 309.97 213.44" style="fill:#263238"></polygon><polygon points="309.97 237.23 305.77 240.64 305.77 241.99 311.64 237.23 305.77 232.48 305.77 233.83 309.97 237.23" style="fill:#263238"></polygon><polygon points="309.97 295.24 305.77 298.64 305.77 300 311.64 295.24 305.77 290.48 305.77 291.84 309.97 295.24" style="fill:#263238"></polygon><polygon points="309.97 319.03 305.77 322.43 305.77 323.79 311.64 319.03 305.77 314.27 305.77 315.63 309.97 319.03" style="fill:#263238"></polygon><polygon points="309.97 342.82 305.77 346.23 305.77 347.58 311.64 342.82 305.77 338.06 305.77 339.42 309.97 342.82" style="fill:#263238"></polygon><polygon points="309.97 366.62 305.77 370.02 305.77 371.37 311.64 366.62 305.77 361.86 305.77 363.21 309.97 366.62" style="fill:#263238"></polygon><polygon points="309.97 261.03 305.77 264.43 305.77 265.78 311.64 261.03 305.77 256.27 305.77 257.62 309.97 261.03" style="fill:#263238"></polygon><path d="M246.19,395.1a6.16,6.16,0,1,0-6.16,6.15A6.16,6.16,0,0,0,246.19,395.1Z" style="fill:none;stroke:#fff;stroke-linecap:round;stroke-linejoin:round"></path></g><g id="freepik--Floor--inject-292"><line x1="30.92" y1="461" x2="24" y2="461" style="fill:none;stroke:#263238;stroke-miterlimit:10"></line><line x1="484" y1="461" x2="39.38" y2="461" style="fill:none;stroke:#263238;stroke-miterlimit:10"></line></g><g id="freepik--Character--inject-292"><path d="M202.27,424.26s-14.5-3.72-22.15-.78-9,2.15-9.8,5.68,1.57,7.06,12.54,9.8,29.21,7.25,35.68,8.82,26.46,3.92,30.58,3.33,21-5.48,22.54-10.19.78-9-3.33-9.6-58.81-8-60.38-8A40.14,40.14,0,0,0,202.27,424.26Z" style="fill:#5c5c5c;stroke:#263238;stroke-miterlimit:10"></path><path d="M315.17,432.3s-7.84,10.19-13.32,14.31-14.31,7.84-18,9.21-28,3.92-34.5,3.53-18.23-3.53-19.79-4.32-5.69,0-1-2a194.18,194.18,0,0,1,31.36-9.6c13.33-2.74,38.42-6.67,43.51-9.41S315.17,432.3,315.17,432.3Z" style="fill:#5c5c5c;stroke:#263238;stroke-miterlimit:10"></path><path d="M295.57,418.38s-30,12.15-39.79,18.42-30,7.45-30,7.45L225.9,457s17.31-.46,31.62-.46,37.46-9,45.5-13.86,13.33-9.22,13.33-15.1-4.7-10.39-9.6-10.39A73.37,73.37,0,0,0,295.57,418.38Z" style="fill:#5c5c5c;stroke:#263238;stroke-miterlimit:10"></path><path d="M259.31,351.15s-11.17-7.26-12.74-7.45-14.51-4.12-20,.59-7.45,27.44-8.63,40.18-4.9,41.95-4.9,41.95S227,438,232.65,439.35s19.21-4.11,24.9-7.05,10.58-8.63,10.58-8.63-6.86-14.7-6.86-21.95-1.76-39-1.57-41.16S259.31,351.15,259.31,351.15Z" style="fill:#fff;stroke:#263238;stroke-miterlimit:10"></path><path d="M230.27,360.41l9,10.73a25.57,25.57,0,0,0,8.43-11.56" style="fill:none;stroke:#263238;stroke-miterlimit:10"></path><line x1="227.75" y1="357.42" x2="228.74" y2="358.59" style="fill:none;stroke:#263238;stroke-miterlimit:10"></line><path d="M246.26,394.1a39.5,39.5,0,0,0,3.25,3.31" style="fill:none;stroke:#263238;stroke-miterlimit:10"></path><path d="M230.3,370.16s6.94,12.74,14,21.63" style="fill:none;stroke:#263238;stroke-miterlimit:10"></path><path d="M227.75,374.28s2.35,9.41,4.71,14.11" style="fill:none;stroke:#263238;stroke-miterlimit:10"></path><path d="M258.33,410.93s-10.58,10-16.86,12.74" style="fill:none;stroke:#263238;stroke-miterlimit:10"></path><path d="M247.94,344.29s3.33,18.62,5.69,31.36,9,40.57,9,41.55.39,5.49.39,5.49l10.79-6.86s-3.53-12-3.53-13.33,1-14.7,1-14.7l5.49,18.43s2.94-4.32,9.8-4.71,9.8,1.57,9.8,1.57-10-27-11.37-32.73-3.73-12.94-7.25-15.29-16.86-7.84-20.39-8.82S247.94,344.29,247.94,344.29Z" style="fill:#BA8600;stroke:#263238;stroke-miterlimit:10"></path><line x1="271.27" y1="387.8" x2="270.09" y2="373.49" style="fill:#fff;stroke:#263238;stroke-miterlimit:10"></line><path d="M250.49,344.87a20,20,0,0,1,4.12,8.24c1,4.7,1,10.78,2.54,13.33l1.57,2.54,2.16,2a2,2,0,0,1-3.14-.39,57.89,57.89,0,0,0-4.51-4.7l.59,8.62-6.66-30S249.12,343.31,250.49,344.87Z" style="fill:#BA8600;stroke:#263238;stroke-miterlimit:10"></path><path d="M226.77,343.5s-2,20.58-2,30.38-4.31,37.25-5.68,41.36a72.27,72.27,0,0,1-4.71,10l-3.53-3.72s0-12.55.4-15.29-2.94-15.1-2.94-15.1l-2.55,12.74-13.92.4-2.94,3.33a126.26,126.26,0,0,1,1-15.09c1-6.86,2.35-23.13,5.69-26.07s9.21-9.61,16.46-14.9a151.05,151.05,0,0,1,15.29-9.61Z" style="fill:#BA8600;stroke:#263238;stroke-miterlimit:10"></path><path d="M226.58,341.54s-2.16,5.49-4.32,10.78a20.71,20.71,0,0,0-1,12c.4,1.76-2.54,7.64-3.72,8.82s1.76.78,2.74,0,2.94-6.08,2.94-6.08l1.77,3.92s2-21.36,2-23.71a48.4,48.4,0,0,1,.39-5.3Z" style="fill:#BA8600;stroke:#263238;stroke-miterlimit:10"></path><line x1="206.32" y1="384.18" x2="205.6" y2="381.73" style="fill:none;stroke:#263238;stroke-miterlimit:10"></line><line x1="208.35" y1="391.13" x2="207.38" y2="387.82" style="fill:none;stroke:#263238;stroke-miterlimit:10"></line><path d="M245.79,309s3.52,2,4.11,3.34a41.28,41.28,0,0,1,1.37,4.9s7.84,4.11,6.86,7.05A5.88,5.88,0,0,1,255,328s3.92,8.82,2.74,12.74-8.82,5.09-8.82,5.09S246,353.3,245.2,358.4s-5.49,8-6.47,8-9.8-11.18-12-19.8-2.94-13.92-2.94-13.92a50.84,50.84,0,0,1-2.35-13.92c0-6.86,4.9-9,12.74-12.34S245.79,309,245.79,309Z" style="fill:#fff;stroke:#263238;stroke-miterlimit:10"></path><path d="M244.94,318.26c.34.91.21,1.8-.29,2s-1.2-.39-1.54-1.3-.22-1.81.28-2S244.59,317.35,244.94,318.26Z" style="fill:#263238"></path><path d="M240.1,316.84s.39-4.11,5.69-2.94" style="fill:none;stroke:#263238;stroke-miterlimit:10"></path><path d="M251.86,329.78s-1.57,1.37-5.29-.19" style="fill:none;stroke:#263238;stroke-miterlimit:10"></path><path d="M254,344.29a82.33,82.33,0,0,1-8.43.78c-2.94,0-10.39-1.76-10.39-1.76s6.47,5.29,9.61,7.84l1.79,1.45c1.08-3.6,2.32-6.75,2.32-6.75a21.07,21.07,0,0,0,5.11-1.56Z" style="fill:#263238;stroke:#263238;stroke-miterlimit:10"></path><path d="M248.14,302.93s2.35-3.14,2.15-6.27-4.11-4.32-6.86-2.75-4.9,2.55-4.9,2.55,4.32-4.71.79-4.31-14.12,2.35-21.76,7.64S206,315.28,207,320.76c.06.3.11.58.15.85a9.9,9.9,0,0,0,1.06,3,15.76,15.76,0,0,0,5.66,7.35c4.7,3.33,10.58,5.88,11.95,3.92.89-1.26,2.17-2.85,2.14-4.55,1-.64,2.57-1.93,2.57-3.68,0-2.55-2.55-3.73-2.36-4.91s4.51-2.94,4.32-5.48a8.09,8.09,0,0,0-.59-3.14,32.09,32.09,0,0,1,11.37-4.31c5.88-.79,8-4.12,8-5.69S248.14,302.93,248.14,302.93Z" style="fill:#263238;stroke:#263238;stroke-miterlimit:10"></path><path d="M229.52,331.94s-2.94-5.49-6.86-3.14-1.38,8.23,1.37,9.61,8-.2,8-.2" style="fill:#fff;stroke:#263238;stroke-miterlimit:10"></path><path d="M264.8,455.43s7.84-1,12-1.38,12.34-3.13,17.44-3.72,10.78,1,13.92,4.9-1.18,8-3.73,9.6-17.05.4-21.36.4-10.19,1-14.51,1.17-7.25.2-7.25.2h-2.74S264.41,461.5,264.8,455.43Z" style="fill:#fff;stroke:#263238;stroke-miterlimit:10"></path><path d="M294.2,450.33c-5.1.59-13.33,3.33-17.44,3.72l-2.39.25c-.28.48-2.61,4.63-.95,7.4a16,16,0,0,0,3.75,3.9c2.07-.21,4.1-.37,5.86-.37,4.31,0,18.82,1.17,21.36-.4s6.86-5.68,3.73-9.6S299.3,449.74,294.2,450.33Z" style="fill:#263238;stroke:#263238;stroke-miterlimit:10"></path><path d="M305,456a7.71,7.71,0,0,1,.86,7.78c2.38-2,4.87-5.32,2.28-8.56-3.14-3.92-8.82-5.49-13.92-4.9C294.2,450.33,302.43,452.49,305,456Z" style="fill:#fff;stroke:#263238;stroke-miterlimit:10"></path><path d="M183.65,451.51s-3.53,1.37-4.9,7.64,2.35,7.25,4.11,6.27a104.61,104.61,0,0,1,14.71-5.29,69.71,69.71,0,0,1,14.11-2.55c.78,0-19.21-5.88-21.76-6.47S183.65,451.51,183.65,451.51Z" style="fill:#263238;stroke:#263238;stroke-miterlimit:10"></path><path d="M183,465.35c-1.37-1.06-3-2.91-2.68-5.42.4-2.82,3.4-6.67,5.23-8.8-1.1.17-1.9.38-1.9.38s-3.53,1.37-4.9,7.64,2.35,7.25,4.11,6.27Z" style="fill:#fff;stroke:#263238;stroke-miterlimit:10"></path><path d="M185.22,429.16s17.05,1.37,21.36,3.53,21.76,10.39,28.62,13.92,20.39,7.05,25.48,8.23,8.23.39,8.43,2.94,0,7.64-2.16,8.82-19.2-1.37-27-1.57-20.71,1.6-36-2.52-23-9.76-28.88-13.29-7.25-7.12-7.05-11.44,2.15-10.58,4.51-11.36a28.78,28.78,0,0,1,6.86-.79" style="fill:#5c5c5c;stroke:#263238;stroke-miterlimit:10"></path><path d="M208.35,411.72s2.74-2.75,2.94-5.49-3.92-7.45-8-8a20.73,20.73,0,0,0-14.31,2.74c-4.9,3.14-6.27,7.65-5.29,9.81s2,5.68,5.1,5.68,4.5-4.7,9-5.29,9.8,1.76,9.8,1.76Z" style="fill:#BA8600;stroke:#263238;stroke-miterlimit:10"></path><path d="M218.11,421.55c-3.15-1.11-7.32-6.4-11.29-12.4-3.53-5.32-12.59-4.49-15.72-1.75s-3.33,9-.79,11.37S214,430.92,215.4,431.32a19.64,19.64,0,0,1,3.92,2.15s4.51,4.71,6.08,5.29,8.62.59,9.21.4,3.53-6.08,3.53-6.08a47.75,47.75,0,0,1-7.64,0c-2.16-.39-3.14-7.45-3.34-8.43a3.16,3.16,0,0,1,.4-2l3.33,1.77s2.47,1.53,3.25,1.14-1.87-4.76-3.83-5.54c-2.25-.9-4.63-.18-6.53.86A23,23,0,0,1,218.11,421.55Z" style="fill:#fff;stroke:#263238;stroke-miterlimit:10"></path><path d="M224.29,435.53a7.75,7.75,0,0,0,2.58,1.89c1.37.51,7.56.68,7.56.68" style="fill:none;stroke:#263238;stroke-miterlimit:10"></path><path d="M225.49,433.81s1.21.86,2.41,1.54a9.09,9.09,0,0,0,3.09.86" style="fill:none;stroke:#263238;stroke-miterlimit:10"></path><path d="M274,411.13a31.24,31.24,0,0,1-1.37-5.49c0-1.37,2.35-6.27,6.08-8.23s10-2,13.72-.2,4.9,4.9,5.88,7.45,1.17,7.84,0,10.58a10.41,10.41,0,0,1-5.69,4.9c-1,.2-1.37-6.46-4.31-7.44s-4.51-1.77-7.64-1A12.77,12.77,0,0,1,274,411.13Z" style="fill:#BA8600;stroke:#263238;stroke-miterlimit:10"></path><path d="M286,403.09c-5.88,0-14.9,10.39-16.86,12.55s-13.72,10-13.72,10l-1.37.59s-6.45-2-7.25-2c-3.06.27-7.26,3.33-8.83,3.72s-3.33-.39-3.13,1.18,1.57,1.57,2.55,1.57a19.45,19.45,0,0,0,3.33,0c.23-.06.31,0,.32.06l-.32-.06-1.27,1.36s-11.35-.17-11,1.72,5.41,3.39,5.41,3.39c1.37.78,2.94,2.35,5.09,3.13s7.45,1.18,8.83.4,6.86-3.93,8.82-5.3,21.75-8.62,26.65-10.58,10.59-2.75,12.35-8.43S291.85,403.09,286,403.09Z" style="fill:#fff;stroke:#263238;stroke-miterlimit:10"></path><path d="M239.42,432.09l0,0-.71-10.15-14.7,1L229,433.1C231.16,432,239.42,432.09,239.42,432.09Z" style="fill:#263238;stroke:#263238;stroke-miterlimit:10"></path><path d="M229.62,435.35a37.59,37.59,0,0,1,5.84.18c3.44.34,5,1.37,6.53,1.37h2.75" style="fill:none;stroke:#263238;stroke-miterlimit:10"></path><path d="M233.83,437.2s5.59,1.25,6.1,1.42,3.61.69,3.61.69" style="fill:none;stroke:#263238;stroke-miterlimit:10"></path></g></svg>